<?xml version="1.0" standalone="no"?>
<!DOCTYPE svg PUBLIC "-//W3C//DTD SVG 20010904//EN"
 "http://www.w3.org/TR/2001/REC-SVG-20010904/DTD/svg10.dtd">
<svg version="1.0" xmlns="http://www.w3.org/2000/svg"
 width="600.000000pt" height="600.000000pt" viewBox="0 0 600.000000 600.000000"
 preserveAspectRatio="xMidYMid meet">
<metadata>
Created by potrace 1.11, written by Peter Selinger 2001-2013
</metadata>
<g transform="translate(0.000000,600.000000) scale(0.100000,-0.100000)"
fill="#000000" stroke="none">
<path d="M3039 5963 c-1 -5 -1 -11 -1 -15 1 -3 -5 -12 -14 -18 -12 -11 -13
-10 -9 2 4 9 0 15 -9 15 -8 0 -13 -4 -10 -9 3 -4 0 -8 -6 -8 -6 0 -8 -6 -4
-12 6 -10 4 -10 -7 0 -16 14 -33 16 -24 2 3 -5 1 -11 -4 -11 -6 -1 -17 -2 -23
-3 -7 -1 -22 5 -32 13 -11 9 -16 11 -13 5 4 -7 -3 -14 -18 -18 -14 -4 -25 -14
-26 -24 0 -13 -2 -12 -9 5 -8 19 -13 21 -32 14 -13 -4 -33 -7 -46 -5 -17 3
-21 0 -16 -8 6 -10 5 -10 -7 -1 -13 10 -20 9 -37 -7 -24 -23 -37 -26 -26 -7 5
8 3 8 -9 -2 -9 -7 -14 -18 -10 -25 4 -6 -1 -5 -10 3 -12 9 -17 10 -17 2 0 -7
-5 -9 -10 -6 -6 4 -7 11 -4 17 4 7 2 8 -4 4 -7 -4 -12 -14 -12 -22 0 -8 -4
-14 -10 -14 -5 0 -10 6 -10 13 0 9 -3 8 -9 -2 -5 -8 -14 -10 -22 -5 -12 6 -12
5 -1 -8 10 -13 10 -18 1 -24 -8 -4 -9 -3 -5 4 4 7 2 12 -3 12 -6 0 -11 -8 -11
-17 0 -15 -2 -16 -10 -3 -7 11 -10 11 -10 2 0 -7 -4 -11 -9 -8 -5 4 -7 -4 -3
-16 4 -16 2 -19 -8 -13 -10 6 -12 4 -7 -8 3 -10 2 -17 -3 -17 -6 0 -10 -5 -10
-11 0 -5 4 -8 9 -4 5 3 13 0 17 -6 4 -8 3 -9 -4 -5 -7 4 -12 2 -12 -4 0 -6 -4
-9 -9 -6 -15 10 -7 -28 9 -41 13 -11 13 -12 -3 -13 -17 0 -17 -1 -3 -16 9 -8
20 -13 25 -9 5 3 13 1 16 -5 4 -6 3 -10 -2 -9 -20 3 -34 -2 -28 -11 4 -6 10
-8 14 -6 4 3 13 1 21 -5 8 -5 11 -9 5 -10 -61 -7 -62 -6 -60 21 2 27 -15 34
-44 15 -8 -4 -12 -4 -9 1 3 5 -1 16 -10 24 -14 13 -15 13 -10 0 4 -11 -1 -15
-17 -15 -13 0 -21 5 -18 12 6 15 -20 11 -41 -6 -14 -12 -16 -12 -11 1 4 9 0
15 -9 15 -8 0 -13 -4 -11 -8 3 -3 -3 -13 -13 -20 -15 -13 -16 -12 -4 3 16 20
2 32 -38 33 -15 0 -24 6 -22 14 1 8 -2 10 -10 5 -22 -14 -40 -13 -34 2 6 17
-5 19 -21 3 -8 -8 -13 -7 -18 2 -5 8 -4 10 3 5 7 -4 12 -1 12 8 0 15 -12 21
-33 17 -5 -1 -6 3 -2 9 3 6 11 8 16 5 5 -3 6 1 3 10 -6 14 -9 14 -28 -2 -11
-10 -15 -11 -8 -3 17 19 15 33 -4 26 -10 -4 -13 -2 -8 6 5 7 2 9 -9 5 -11 -4
-14 -2 -10 9 6 17 -8 18 -26 2 -11 -11 -12 -8 -6 12 7 22 6 23 -8 12 -12 -10
-16 -10 -20 0 -4 10 -8 10 -16 -2 -9 -13 -11 -13 -11 -1 0 11 -4 9 -15 -5 -15
-19 -15 -19 -8 1 6 20 6 20 -16 0 -12 -11 -22 -15 -21 -10 5 22 -1 29 -10 15
-9 -13 -11 -13 -20 0 -7 11 -10 12 -10 2 0 -8 -6 -12 -12 -10 -7 3 -26 -10
-43 -27 -26 -28 -84 -53 -107 -47 -5 1 -8 -3 -8 -8 0 -6 -9 -20 -20 -32 -11
-12 -20 -28 -20 -36 0 -9 -6 -12 -16 -8 -8 3 -12 2 -9 -4 3 -6 0 -10 -7 -10
-9 0 -9 -3 2 -10 12 -7 12 -10 1 -10 -8 0 -11 -6 -7 -16 5 -14 4 -15 -8 -5
-12 10 -14 8 -12 -13 2 -14 0 -23 -5 -21 -4 3 -14 2 -23 -1 -15 -6 -15 -8 1
-20 10 -8 14 -14 8 -13 -31 4 -38 -1 -24 -18 8 -9 9 -14 3 -10 -7 4 -18 -1
-25 -10 -8 -9 -9 -14 -3 -10 7 4 15 0 18 -9 3 -8 2 -13 -3 -10 -5 3 -11 -8
-13 -24 -3 -21 -1 -27 7 -20 7 6 11 3 11 -10 0 -10 -3 -17 -6 -15 -4 2 -7 -2
-7 -10 0 -8 4 -12 9 -9 4 3 8 -2 8 -10 0 -9 5 -16 11 -16 5 0 7 -6 3 -12 -5
-8 0 -7 11 2 15 12 17 12 10 1 -6 -11 -4 -13 11 -7 10 4 15 4 12 0 -4 -4 -2
-16 3 -27 9 -16 13 -17 20 -6 6 9 9 10 9 2 0 -6 -4 -14 -9 -18 -6 -3 -8 -14
-6 -25 3 -18 1 -19 -18 -8 -20 10 -21 10 -8 -5 12 -15 11 -17 -8 -17 -11 0
-21 -5 -21 -11 0 -5 4 -8 8 -5 5 3 9 -1 9 -8 0 -8 -6 -12 -13 -9 -9 3 -12 -2
-9 -16 2 -11 -1 -23 -6 -26 -5 -4 -7 -11 -3 -16 3 -5 2 -8 -3 -7 -14 5 -16 -6
-9 -44 4 -25 12 -38 23 -38 9 0 13 -6 10 -14 -4 -10 0 -12 14 -9 11 3 19 0 19
-7 0 -7 6 -10 13 -7 9 3 13 -2 12 -16 -1 -12 1 -27 6 -32 5 -7 1 -12 -9 -13
-9 -1 -26 -3 -37 -4 -11 -2 -24 -9 -28 -16 -6 -9 -13 -9 -27 -2 -28 15 -37 12
-14 -5 17 -13 17 -14 2 -15 -10 0 -18 -5 -18 -11 0 -5 6 -7 13 -3 9 6 9 5 0
-8 -7 -8 -12 -17 -10 -19 1 -2 -4 2 -10 10 -11 13 -13 11 -13 -8 0 -12 -4 -20
-9 -16 -6 3 -15 -3 -21 -12 -9 -16 -10 -15 -5 5 7 24 7 24 -21 6 -27 -18 -27
-18 -16 3 9 17 8 23 -6 34 -15 13 -16 12 -3 -3 7 -10 9 -18 3 -18 -16 0 -22
26 -9 40 9 10 9 11 0 6 -8 -5 -13 -1 -13 9 0 9 5 13 11 10 6 -4 5 2 -2 13 -7
12 -17 18 -21 16 -4 -3 -8 0 -8 7 0 7 -3 9 -7 5 -5 -4 0 -14 10 -21 10 -7 14
-16 8 -19 -5 -3 -17 12 -27 34 -10 22 -22 40 -27 40 -5 0 -4 -6 2 -14 9 -11 9
-16 -1 -22 -7 -4 -10 -3 -5 1 4 5 -1 17 -10 28 -10 11 -13 17 -6 14 6 -4 15
-2 19 4 4 7 3 9 -3 6 -6 -4 -19 0 -29 8 -22 16 -38 20 -29 6 3 -5 0 -13 -6
-17 -7 -4 -9 -3 -6 3 4 6 -1 17 -10 24 -15 12 -16 12 -10 -4 6 -16 5 -16 -20
0 -22 14 -26 15 -19 3 4 -8 0 -6 -10 5 -15 18 -16 18 -10 1 4 -13 2 -17 -8
-13 -7 3 -19 0 -26 -6 -10 -9 -11 -9 -5 2 6 11 4 13 -9 8 -13 -5 -17 -3 -13 6
3 8 0 14 -6 15 -7 0 -21 3 -32 5 -11 2 -26 -3 -33 -12 -8 -9 -11 -11 -8 -4 4
6 2 14 -4 18 -5 3 -10 2 -10 -4 0 -6 -8 -7 -17 -4 -12 5 -15 2 -11 -9 4 -8 1
-15 -8 -15 -7 0 -11 4 -8 9 3 4 1 8 -4 8 -6 0 -13 -7 -16 -16 -4 -9 -13 -14
-21 -10 -11 4 -19 -3 -25 -20 -9 -22 -12 -24 -32 -13 -20 11 -21 10 -11 -3 18
-22 3 -31 -19 -11 -15 13 -18 14 -18 1 0 -10 -9 -13 -30 -12 -17 1 -33 -3 -37
-9 -3 -6 -1 -7 5 -3 7 4 12 2 12 -3 0 -10 -14 -15 -34 -12 -5 1 -6 -5 -2 -14
4 -10 1 -15 -9 -13 -7 2 -13 0 -12 -3 1 -4 -9 -17 -23 -29 -14 -12 -19 -19
-12 -15 20 10 14 -9 -7 -22 -16 -10 -18 -18 -11 -42 6 -23 5 -29 -5 -25 -7 3
-15 -2 -19 -11 -3 -9 -2 -14 3 -11 11 7 22 -19 13 -29 -7 -6 -8 -10 -11 -36 0
-5 -5 -8 -10 -5 -10 6 -20 -33 -13 -52 2 -7 8 -9 14 -6 6 4 6 -1 -1 -13 -12
-24 -5 -34 16 -26 13 5 13 3 3 -17 -8 -15 -8 -20 -1 -16 6 4 11 3 11 -3 0 -5
10 -13 21 -16 15 -5 18 -10 9 -15 -6 -4 -11 -10 -11 -14 2 -17 -1 -22 -24 -33
-14 -6 -23 -7 -19 -2 3 5 1 9 -5 9 -5 0 -15 -8 -20 -17 -6 -10 -11 -13 -11 -6
0 7 -7 10 -15 7 -8 -4 -12 -10 -9 -15 3 -5 -5 -9 -17 -9 -17 0 -19 -3 -10 -14
9 -11 9 -16 0 -22 -8 -5 -9 -3 -4 6 5 8 3 11 -6 8 -8 -3 -13 -11 -11 -17 1 -6
-3 -11 -9 -11 -5 0 -7 -6 -3 -12 6 -10 5 -10 -7 -1 -12 10 -18 9 -29 -7 -7
-10 -18 -16 -22 -13 -5 3 -12 -5 -15 -16 -4 -17 -8 -19 -19 -10 -12 10 -13 8
-8 -6 6 -14 4 -16 -6 -10 -10 6 -12 4 -7 -8 3 -10 2 -17 -4 -17 -6 0 -8 -4 -4
-9 3 -6 0 -13 -7 -18 -7 -4 -14 -16 -14 -25 -1 -10 2 -16 6 -13 5 3 11 1 15
-5 3 -5 -1 -10 -9 -10 -10 0 -13 -6 -9 -17 4 -11 3 -14 -5 -9 -8 4 -12 0 -12
-11 0 -15 -2 -16 -10 -3 -8 13 -10 12 -10 -2 0 -10 -8 -18 -17 -19 -15 0 -15
-2 -3 -7 24 -11 22 -31 -3 -25 -13 3 -18 1 -11 -4 13 -10 27 -46 15 -38 -5 3
-12 1 -16 -5 -3 -5 1 -10 9 -10 19 0 15 -52 -5 -58 -11 -3 -10 -1 1 7 8 6 10
11 4 11 -15 0 -37 -27 -27 -32 4 -3 3 -4 -3 -2 -6 1 -16 -2 -22 -8 -8 -8 -16
-7 -29 3 -16 13 -17 12 -4 -3 7 -10 11 -19 7 -19 -3 -1 -12 -2 -18 -3 -7 -1
-12 -9 -10 -18 1 -9 -3 -20 -9 -24 -8 -5 -9 -3 -4 7 7 11 6 12 -7 2 -8 -7 -18
-9 -23 -5 -4 4 -2 -4 5 -18 10 -21 10 -23 -1 -12 -16 14 -33 16 -24 2 3 -6 -2
-10 -12 -10 -15 0 -16 -2 -3 -10 12 -8 11 -10 -6 -10 -12 0 -27 -7 -34 -15 -7
-8 -9 -15 -6 -15 15 0 -16 -40 -32 -41 -14 0 -14 -2 3 -9 11 -5 15 -9 9 -9 -7
-1 -9 -12 -6 -26 3 -16 -2 -34 -14 -48 -13 -15 -14 -18 -3 -9 14 10 18 10 23
-3 3 -9 2 -13 -4 -10 -6 3 -10 3 -11 -2 0 -4 -2 -16 -4 -25 -2 -10 1 -20 6
-24 5 -3 9 -1 9 4 0 5 7 9 16 9 15 0 15 -1 1 -12 -13 -9 -14 -15 -4 -25 10
-12 9 -12 -4 -2 -9 6 -19 9 -22 5 -4 -3 -7 0 -7 7 0 7 -2 11 -5 8 -8 -7 6 -39
14 -34 4 3 13 -5 21 -17 11 -19 11 -20 -1 -11 -21 17 -52 14 -38 -3 6 -7 15
-10 20 -7 5 3 9 0 9 -6 0 -6 5 -8 12 -4 7 5 8 3 4 -5 -5 -7 -14 -10 -22 -7 -8
3 -14 -1 -14 -10 0 -9 5 -12 13 -8 7 5 6 0 -3 -11 -8 -10 -10 -16 -3 -12 6 4
15 2 19 -4 4 -7 3 -9 -2 -6 -6 3 -16 2 -24 -4 -13 -7 -12 -9 3 -10 31 -3 35
-4 44 -12 4 -5 2 -7 -6 -5 -7 2 -16 -3 -19 -11 -2 -8 0 -11 5 -8 5 3 10 0 10
-8 0 -8 -4 -12 -8 -10 -4 3 -10 -2 -13 -11 -3 -9 -2 -12 5 -9 6 4 10 1 8 -6
-3 -28 1 -39 17 -39 8 0 12 -4 9 -10 -3 -5 3 -10 14 -10 12 0 21 -5 21 -11 0
-5 -6 -7 -12 -3 -9 5 -9 2 1 -9 15 -19 26 -23 15 -6 -4 7 -1 10 7 7 8 -3 13
-11 11 -17 -1 -7 2 -9 8 -6 6 4 9 14 6 24 -5 14 -4 14 6 1 14 -16 61 -24 52
-9 -3 5 -10 6 -16 3 -6 -4 -8 -2 -5 3 4 6 18 8 32 5 15 -2 25 0 25 7 0 6 9 11
20 11 11 0 20 5 20 10 0 6 7 10 16 10 8 0 13 4 10 8 -2 4 4 8 14 8 15 0 17 -3
7 -15 -9 -11 -4 -11 17 3 16 10 26 14 22 8 -3 -5 1 -13 10 -16 8 -3 12 -2 9 3
-3 5 -1 12 5 16 5 3 10 2 10 -3 0 -5 7 -9 15 -9 8 0 11 5 8 10 -4 6 0 8 10 4
10 -3 17 -2 17 4 0 6 5 7 11 4 17 -11 59 -13 59 -3 0 5 5 6 10 3 6 -4 7 -12 3
-18 -5 -8 -2 -8 9 0 18 15 32 5 18 -12 -8 -9 -6 -14 5 -19 8 -3 15 -17 15 -31
0 -14 5 -25 10 -25 6 0 10 -7 10 -16 0 -8 -4 -13 -9 -10 -4 3 -7 -6 -6 -19 2
-13 0 -24 -3 -23 -16 3 -63 -23 -57 -32 3 -5 -1 -10 -9 -10 -9 0 -16 -5 -16
-11 0 -5 5 -7 12 -3 7 4 8 3 4 -4 -4 -6 -14 -8 -23 -5 -11 4 -14 3 -9 -5 4 -7
3 -12 -3 -12 -6 0 -7 -7 -4 -17 5 -11 3 -14 -6 -8 -10 6 -11 3 -1 -15 7 -13 8
-20 2 -16 -6 4 -10 -2 -9 -13 1 -16 4 -18 16 -8 11 9 13 9 8 0 -4 -6 -1 -14 5
-16 9 -4 8 -6 -2 -6 -9 -1 -5 -6 10 -14 14 -7 24 -21 24 -30 -1 -9 2 -17 8
-17 5 0 6 -5 2 -11 -4 -8 -9 -7 -15 2 -4 8 -25 15 -46 17 -56 3 -64 5 -57 11
9 10 28 8 37 -4 5 -6 7 -4 4 5 -2 9 -14 14 -30 13 -15 -1 -27 2 -27 8 0 6 -5
7 -12 3 -6 -4 -8 -3 -4 4 3 6 16 9 28 7 11 -3 17 -1 14 3 -7 7 -11 8 -37 11
-5 0 -8 5 -5 10 3 5 -1 12 -10 15 -10 4 -13 2 -8 -7 6 -9 5 -9 -8 0 -8 7 -17
12 -19 10 -2 -1 2 3 9 9 10 9 10 13 -3 18 -9 3 -13 2 -10 -4 3 -6 -1 -10 -10
-10 -9 0 -14 4 -10 9 3 6 -18 8 -52 6 -68 -4 -90 -8 -100 -20 -4 -4 -2 -5 5
-1 6 4 12 4 12 -1 0 -4 -14 -14 -31 -22 -22 -9 -27 -16 -18 -21 7 -5 14 -19
16 -32 2 -17 1 -19 -6 -8 -5 8 -7 19 -3 25 3 5 -2 4 -11 -4 -13 -10 -14 -17
-7 -26 13 -16 -4 -30 -22 -19 -7 5 -8 3 -3 -6 6 -10 3 -12 -11 -7 -18 7 -18 6
-1 -7 23 -18 22 -29 -2 -16 -14 7 -22 7 -26 0 -4 -6 -1 -9 6 -8 6 2 14 -3 17
-11 3 -8 0 -11 -7 -7 -7 5 -11 -1 -11 -14 0 -13 -4 -19 -12 -14 -7 4 -8 3 -4
-4 4 -7 15 -12 24 -13 11 -1 8 -4 -8 -9 -19 -6 -20 -8 -6 -9 16 -1 16 -3 -5
-21 -13 -11 -18 -19 -10 -18 7 2 16 -3 19 -11 3 -8 0 -11 -7 -7 -6 4 -11 2
-11 -3 0 -6 5 -11 10 -11 6 0 10 -5 10 -11 0 -5 -5 -7 -11 -3 -7 4 -10 1 -7
-7 3 -8 14 -13 24 -11 15 2 16 1 5 -6 -8 -6 -10 -15 -6 -23 6 -9 3 -11 -9 -6
-14 6 -15 4 -5 -14 8 -16 8 -20 0 -14 -8 5 -11 -6 -10 -34 2 -23 7 -41 11 -41
4 0 8 -7 8 -16 0 -9 6 -14 13 -11 10 4 13 -2 9 -20 -4 -20 -2 -24 9 -18 11 6
12 5 2 -6 -17 -18 -16 -26 3 -33 15 -6 15 -4 3 11 -13 16 -12 17 3 4 10 -7 18
-19 18 -26 0 -7 7 -16 16 -19 14 -5 15 -4 4 9 -11 13 -10 14 4 9 9 -3 16 -10
16 -14 0 -4 7 -10 14 -13 10 -4 13 -1 9 9 -3 7 0 14 7 14 6 0 9 -4 6 -9 -3 -4
1 -17 9 -27 15 -18 15 -18 9 1 -5 16 -4 17 4 5 7 -9 7 -19 2 -26 -6 -6 -7 -14
-3 -17 3 -4 -2 -9 -11 -13 -11 -4 -15 -13 -11 -25 4 -12 2 -19 -6 -19 -7 0 -5
-7 7 -16 10 -8 14 -13 7 -10 -6 4 -14 2 -18 -4 -3 -5 -2 -10 3 -10 5 0 12 -10
15 -22 6 -21 5 -22 -7 -5 -13 17 -14 16 -12 -7 0 -13 6 -21 11 -18 6 3 4 -1
-3 -10 -10 -13 -10 -17 0 -21 8 -4 7 -6 -4 -6 -10 -1 -18 -8 -18 -17 0 -9 -5
-12 -12 -8 -7 4 -3 -3 9 -15 24 -23 32 -41 10 -23 -10 8 -13 6 -13 -8 0 -10 4
-16 8 -14 4 3 16 0 25 -6 16 -11 16 -11 1 -6 -10 3 -20 0 -24 -6 -4 -6 -3 -8
3 -5 5 3 17 -3 26 -14 11 -13 13 -19 4 -19 -8 0 -7 -4 3 -10 13 -9 13 -10 0
-10 -9 0 -11 -3 -5 -8 11 -8 17 -44 6 -37 -4 2 -8 -2 -8 -10 0 -8 4 -12 9 -9
4 3 8 -1 8 -8 0 -9 3 -9 10 2 5 8 10 10 10 5 0 -6 -6 -17 -12 -24 -10 -11 -10
-13 0 -7 7 5 12 1 13 -11 0 -10 3 -13 6 -5 2 6 9 12 14 12 4 0 6 -7 2 -16 -5
-13 -1 -15 18 -10 13 3 18 3 11 0 -6 -3 -9 -11 -6 -16 5 -7 2 -8 -5 -3 -8 4
-6 -4 4 -18 9 -15 14 -31 11 -36 -4 -5 -2 -12 3 -16 14 -8 3 -33 -17 -38 -15
-4 -15 -5 1 -6 9 0 17 -4 18 -8 0 -5 2 -18 3 -31 2 -14 -3 -22 -13 -22 -13 0
-14 -2 -2 -9 8 -5 15 -21 16 -35 0 -21 -2 -23 -15 -13 -9 6 -8 3 3 -9 14 -15
19 -16 26 -5 6 9 11 10 15 2 4 -6 2 -11 -3 -11 -6 0 -11 -10 -10 -22 0 -22 1
-22 9 -3 l9 20 1 -20 1 -20 9 20 c8 19 9 19 9 -2 1 -13 7 -22 14 -20 13 2 13
-1 4 -48 -4 -16 -4 -25 -1 -18 8 18 53 -26 49 -48 -3 -16 -1 -17 15 -6 16 10
24 7 50 -18 19 -18 30 -24 30 -14 0 8 11 1 25 -16 15 -19 24 -25 25 -15 0 13
2 13 9 0 6 -8 7 -18 5 -22 -3 -4 9 -6 26 -4 17 2 33 -1 37 -7 4 -6 1 -7 -7 -2
-8 5 -11 4 -6 -3 3 -6 18 -9 32 -6 18 3 23 1 18 -7 -4 -8 -3 -9 4 -5 6 4 9 13
5 22 -4 11 -9 12 -19 3 -10 -8 -14 -8 -14 0 0 6 3 11 8 12 4 0 15 2 25 4 9 2
15 0 13 -3 -2 -4 3 -14 12 -22 14 -13 15 -12 9 4 -5 13 -3 17 7 13 21 -8 27 3
15 26 -8 14 -8 18 0 13 15 -10 14 7 -1 24 -11 12 -10 12 5 1 14 -11 17 -11 17
-1 0 8 3 11 6 8 3 -4 0 -16 -6 -28 -7 -13 -7 -20 -2 -16 6 3 12 3 15 -1 2 -5
2 -3 1 4 -2 7 1 15 6 18 6 4 10 -1 10 -10 0 -11 5 -15 14 -12 11 4 13 -1 10
-19 -3 -18 -1 -23 7 -18 8 4 9 3 5 -5 -4 -6 -12 -8 -18 -5 -7 5 -9 1 -5 -9 5
-12 1 -17 -13 -17 -11 0 -20 -5 -20 -11 0 -5 4 -8 8 -5 5 3 9 -1 9 -9 0 -8 -4
-12 -9 -9 -4 3 -8 -2 -8 -10 0 -9 5 -16 12 -16 6 0 8 -3 5 -6 -4 -4 -13 -2
-20 4 -10 9 -14 8 -14 -3 0 -7 3 -14 6 -13 20 2 27 -5 28 -24 2 -22 1 -22 -13
-4 -8 11 -14 15 -14 9 0 -6 7 -16 15 -23 9 -7 14 -19 11 -26 -3 -8 -2 -13 2
-11 4 1 7 -2 7 -8 0 -5 -4 -9 -8 -7 -5 1 -6 -2 -2 -8 3 -6 11 -8 16 -5 5 4 9
-8 9 -25 0 -22 4 -29 12 -25 7 4 4 -1 -6 -9 -11 -9 -14 -16 -7 -16 7 0 9 -5 5
-13 -6 -8 -3 -8 9 1 15 12 15 11 7 -17 -5 -19 -5 -29 0 -26 14 8 52 -14 45
-26 -4 -5 -3 -8 2 -7 4 1 18 -3 29 -10 12 -6 24 -8 28 -5 3 3 6 0 6 -8 0 -11
2 -11 10 1 5 8 10 10 10 4 0 -7 7 -15 16 -18 11 -4 15 -2 11 8 -8 20 23 14 39
-9 8 -11 21 -16 34 -12 26 7 35 -9 18 -31 -11 -15 -11 -16 2 -6 13 9 21 10 48
5 4 -1 0 -6 -8 -11 -11 -8 -7 -9 14 -4 22 5 27 4 21 -6 -5 -8 -4 -11 3 -6 5 3
13 0 16 -6 4 -7 4 -2 2 12 -5 24 -4 24 9 6 8 -10 12 -23 9 -27 -3 -5 0 -9 5
-9 6 0 11 10 11 23 0 14 3 18 8 10 4 -6 20 -14 35 -17 16 -3 25 -1 22 5 -4 5
-1 9 4 9 6 0 11 5 11 11 0 5 -5 7 -12 3 -7 -5 -8 -3 -4 5 5 7 10 10 13 7 3 -3
15 0 27 6 11 6 18 7 14 3 -4 -5 -3 -14 3 -21 7 -8 6 -14 -2 -20 -7 -4 -9 -3
-5 4 3 6 2 13 -3 16 -5 4 -8 -2 -7 -11 2 -10 14 -24 27 -30 13 -7 19 -13 12
-13 -7 0 -10 -7 -7 -15 4 -8 10 -15 16 -15 5 0 6 4 3 10 -3 6 1 7 10 3 9 -3
12 -9 7 -12 -11 -8 -12 -42 0 -35 5 3 6 9 4 13 -3 4 1 8 7 8 7 0 14 -9 14 -20
1 -11 6 -23 10 -26 4 -3 10 -17 11 -30 2 -14 15 -33 28 -44 13 -10 21 -23 18
-29 -4 -7 -2 -8 5 -4 6 4 9 12 6 17 -4 5 -1 9 4 9 6 0 11 -4 11 -9 0 -5 10 -8
23 -7 19 2 23 -2 21 -18 -1 -12 -3 -25 -3 -29 -1 -5 -6 -5 -13 -1 -8 5 -9 2
-5 -9 3 -10 2 -17 -3 -17 -4 0 -7 -17 -5 -37 2 -22 -2 -41 -8 -45 -8 -5 -6 -8
6 -8 15 0 21 -15 20 -57 0 -6 6 -9 13 -6 8 3 14 0 14 -6 0 -6 6 -11 14 -11 8
0 17 -7 20 -16 3 -8 2 -12 -3 -9 -5 3 -12 2 -15 -3 -2 -4 5 -9 17 -9 12 -1 23
-7 25 -13 2 -6 10 -17 19 -25 9 -9 10 -15 3 -15 -7 0 -5 -6 4 -16 9 -8 16 -21
16 -27 0 -7 4 -6 10 3 7 12 10 12 10 1 0 -8 6 -11 16 -7 10 4 13 2 8 -6 -5 -8
-2 -9 11 -4 14 5 15 4 7 -7 -8 -10 -6 -13 8 -13 10 0 16 5 12 11 -3 5 2 4 12
-4 13 -11 14 -16 4 -24 -9 -6 -8 -7 5 -3 26 8 66 -13 60 -33 -4 -12 -3 -13 5
-3 5 8 12 13 16 13 3 -1 9 0 14 0 4 1 14 1 23 0 9 -1 19 5 22 14 7 17 27 21
27 4 0 -5 -6 -7 -12 -3 -7 4 -10 3 -6 -1 5 -5 20 -9 35 -11 16 -1 22 0 16 3
-18 7 -16 20 2 20 8 0 15 -4 15 -9 0 -6 39 -5 48 3 2 1 10 4 27 8 3 0 0 11 -6
24 -11 20 -11 21 4 9 13 -11 15 -10 10 9 -5 16 -3 20 6 14 10 -6 11 -3 2 14
-7 12 -8 21 -4 20 20 -3 27 2 13 11 -10 7 -12 12 -4 17 6 5 10 18 9 31 -1 12
3 22 8 22 5 0 4 7 -3 15 -10 12 -10 15 0 15 8 0 10 3 7 7 -4 3 -1 13 6 21 9
13 9 14 -1 8 -7 -4 -12 -1 -12 9 0 10 5 13 12 9 7 -5 8 -3 2 7 -15 24 -14 42
1 29 10 -8 15 -8 21 1 4 8 3 9 -4 5 -7 -4 -12 -3 -12 2 0 5 9 12 20 15 13 3
18 1 13 -6 -4 -8 -1 -7 9 1 13 10 17 10 22 -4 3 -9 3 -20 0 -25 -3 -5 0 -8 8
-7 7 2 12 -3 11 -10 -2 -6 3 -12 10 -12 8 0 7 -4 -3 -10 -13 -9 -13 -10 0 -11
8 -1 18 -1 22 0 12 2 10 -13 -3 -26 -9 -9 -6 -11 12 -7 l24 5 -23 -13 c-12 -8
-19 -17 -16 -21 7 -7 -11 -11 -31 -7 -5 1 -2 -7 8 -18 19 -21 11 -38 -10 -20
-8 6 -13 7 -12 2 1 -5 0 -11 -1 -14 -7 -15 -5 -70 3 -70 4 0 5 -5 2 -10 -3 -6
-1 -10 4 -10 6 0 10 -6 8 -12 -1 -7 5 -12 13 -10 10 1 9 -3 -5 -14 -18 -15
-18 -16 -1 -10 14 5 17 3 12 -10 -5 -13 -4 -15 7 -5 12 9 14 6 11 -14 -2 -23
0 -24 14 -13 13 11 15 11 9 -4 -3 -10 -1 -20 5 -24 7 -4 8 -3 4 4 -4 7 -2 12
3 12 6 0 11 -4 11 -10 0 -5 7 -10 16 -10 8 0 12 -5 9 -10 -3 -6 3 -10 14 -10
15 0 21 -7 21 -22 0 -15 3 -19 8 -11 6 10 16 7 40 -10 17 -13 28 -28 24 -33
-4 -4 1 -2 10 5 15 11 17 10 14 -6 -3 -13 2 -18 19 -18 13 0 21 3 19 6 -2 4 3
10 12 13 23 9 27 7 18 -7 -5 -7 0 -4 10 8 15 16 18 17 13 3 -3 -10 -2 -20 3
-23 6 -4 10 1 10 11 0 11 4 14 13 7 6 -5 19 -9 27 -8 8 0 18 -6 22 -15 5 -11
7 -8 7 8 1 21 2 22 17 8 19 -19 25 -20 21 -3 -1 7 6 11 17 9 10 -2 16 1 13 5
-8 13 35 14 50 1 10 -8 13 -6 13 6 0 8 11 18 24 22 18 4 23 11 21 26 -3 13 0
18 8 15 9 -3 12 4 11 25 -2 25 0 27 14 16 14 -12 14 -10 3 10 -12 23 -12 23
11 11 22 -12 22 -11 8 7 -14 18 -14 18 3 5 9 -7 17 -21 17 -30 0 -9 9 -23 20
-31 15 -11 16 -16 7 -23 -8 -6 -6 -7 7 -3 11 4 24 0 33 -11 8 -10 12 -12 8 -5
-4 7 0 12 10 12 9 0 13 -4 10 -10 -6 -10 7 -14 34 -11 8 2 10 -2 5 -10 -5 -8
-2 -11 8 -7 8 4 21 -2 28 -13 11 -14 16 -15 22 -6 6 9 8 8 8 -2 0 -11 4 -9 15
5 11 13 13 14 9 3 -6 -19 32 -34 42 -17 4 6 10 5 15 -3 7 -12 10 -12 21 0 10
10 10 12 1 7 -7 -4 -13 -5 -13 -2 0 3 10 10 21 17 12 6 19 7 15 1 -3 -5 1 -13
10 -16 8 -3 13 -2 10 2 -3 5 1 9 9 9 8 0 12 -4 10 -8 -3 -4 2 -9 10 -12 9 -4
12 -1 9 7 -3 8 0 17 7 22 8 4 10 3 5 -4 -8 -13 -6 -14 36 -16 15 -1 25 1 23 5
-3 3 3 15 11 25 9 10 13 14 10 7 -4 -6 -1 -15 5 -19 8 -4 9 -3 5 4 -4 7 -2 12
3 12 6 0 10 6 8 13 -1 6 4 11 12 9 7 -1 19 3 27 9 12 10 13 8 8 -7 -4 -14 -1
-13 15 6 11 14 21 21 21 16 0 -5 8 -2 17 5 14 12 16 12 8 0 -6 -10 -4 -12 4
-7 7 5 10 15 6 23 -4 13 -3 14 9 4 13 -11 15 -9 11 8 -3 18 -1 20 15 11 15 -8
17 -7 12 12 -3 13 -1 19 5 15 18 -11 21 50 4 68 -15 15 -14 16 4 10 19 -6 19
-6 3 8 -10 8 -18 22 -18 31 0 9 -4 16 -10 16 -5 0 -10 10 -10 22 0 12 -3 19
-6 15 -9 -8 -33 16 -26 27 3 5 -2 7 -11 3 -10 -3 -17 -2 -17 4 0 6 -5 7 -10 4
-9 -6 -14 7 -11 27 0 4 -7 4 -16 1 -12 -5 -15 -2 -10 10 3 9 1 19 -5 23 -6 4
-8 3 -5 -3 3 -5 -1 -10 -9 -10 -9 0 -11 4 -5 10 5 5 7 16 4 23 -3 8 2 17 11
20 9 3 16 13 16 21 0 8 -4 12 -8 9 -4 -2 -8 4 -8 15 0 10 4 19 8 19 4 0 8 5 8
11 0 5 -4 7 -10 4 -5 -3 -10 -1 -10 5 0 6 -6 8 -12 4 -7 -4 -5 2 5 13 9 11 14
23 10 28 -5 4 -3 5 3 2 7 -4 15 0 18 9 3 8 2 12 -4 9 -18 -11 -10 4 15 29 14
14 25 20 25 13 0 -7 4 -6 10 3 8 12 10 12 10 1 0 -9 4 -10 13 -4 16 13 48 13
40 0 -4 -6 0 -8 10 -4 11 4 15 1 12 -13 -3 -13 1 -17 11 -13 11 4 15 0 12 -12
-2 -11 4 -19 15 -21 24 -3 48 -24 41 -35 -3 -5 -10 -7 -15 -3 -5 3 -6 10 -3
16 4 7 2 8 -4 4 -9 -5 -9 -13 -1 -28 10 -18 9 -20 -5 -15 -10 4 -15 3 -11 -3
3 -6 2 -10 -3 -10 -5 0 -9 -6 -10 -12 0 -7 -4 -24 -7 -38 -5 -17 -4 -21 3 -12
7 11 10 11 15 -2 4 -9 3 -15 -1 -15 -20 3 -23 -3 -11 -18 8 -9 9 -14 3 -10 -7
4 -14 0 -18 -8 -3 -8 0 -14 7 -12 7 1 11 -6 9 -15 -2 -10 2 -18 8 -18 5 0 10
-9 10 -20 0 -11 3 -19 8 -18 17 5 53 -15 49 -26 -6 -14 21 -15 42 -1 9 5 12 4
8 -2 -9 -15 29 -23 42 -10 8 8 11 8 11 -1 0 -7 5 -12 11 -12 5 0 7 6 3 13 -5
8 -2 8 9 -2 9 -7 17 -19 17 -25 0 -6 -5 -4 -11 4 -9 13 -10 13 -6 0 2 -9 14
-15 30 -14 15 1 27 -3 27 -9 0 -5 7 -3 17 4 13 11 17 11 20 2 3 -7 9 -13 14
-13 6 0 7 5 3 12 -5 8 2 9 24 5 20 -4 32 -2 32 4 0 6 -6 7 -12 3 -7 -4 -9 -3
-5 2 14 15 57 12 70 -5 11 -14 10 -15 -8 -2 -11 8 -8 3 7 -12 15 -15 34 -27
43 -27 8 0 15 -5 15 -12 0 -6 3 -8 7 -5 3 4 13 1 21 -6 10 -8 13 -8 9 -1 -4 7
0 15 9 18 8 3 12 2 9 -3 -3 -5 0 -13 6 -17 7 -4 9 -3 5 4 -7 12 23 46 32 37 4
-3 0 -10 -8 -15 -11 -7 -11 -10 -2 -10 7 0 15 7 19 16 5 13 7 13 14 2 8 -11
11 -11 18 1 7 11 11 10 21 -5 11 -18 11 -18 6 0 -5 13 -2 17 9 12 8 -3 14 0
12 7 -1 7 8 12 21 11 21 -1 21 0 6 24 -11 17 -12 22 -3 16 8 -5 22 -10 33 -11
16 -3 17 -1 6 12 -16 19 -6 20 12 1 12 -12 18 -12 39 1 23 13 23 14 2 8 -13
-4 -23 -2 -23 3 0 6 13 9 29 8 17 -1 28 2 25 6 -3 4 0 8 5 8 6 0 11 5 11 11 0
5 -4 8 -8 5 -5 -3 -9 1 -9 8 0 7 7 13 16 12 9 0 16 5 17 12 3 25 5 27 14 12 6
-9 10 -10 10 -3 0 6 -4 15 -10 18 -6 4 -5 13 2 25 7 10 16 16 22 13 5 -4 7 1
2 12 -6 16 -4 16 11 4 10 -7 15 -9 11 -5 -4 5 -2 16 5 24 10 13 9 14 -2 7 -10
-6 -12 -4 -7 4 5 7 14 10 22 7 7 -3 18 4 24 15 6 11 15 17 20 14 4 -3 6 5 2
17 -4 15 -2 19 7 13 10 -6 10 -3 0 16 -11 22 -11 23 5 10 14 -12 16 -12 10 4
-6 14 -4 16 7 10 12 -8 12 -6 0 9 -8 9 -10 16 -5 15 21 -4 34 2 34 15 0 8 12
24 27 36 16 12 21 19 13 15 -8 -4 -6 1 4 9 11 9 16 16 11 16 -5 0 1 7 13 16
15 10 20 20 14 27 -10 15 -10 27 2 46 6 10 5 12 -2 7 -11 -7 -17 11 -13 41 1
7 -3 13 -9 13 -6 0 -8 -4 -5 -10 12 -19 -3 -10 -32 19 -16 15 -27 35 -24 42 4
12 2 12 -12 0 -10 -7 -17 -9 -17 -3 0 5 -9 12 -20 15 -13 3 -20 0 -20 -9 0
-11 -4 -10 -18 4 -10 9 -28 24 -40 32 -22 15 -32 37 -10 24 7 -4 8 -3 4 5 -6
8 -12 9 -20 2 -9 -8 -13 -7 -13 4 0 8 4 12 9 9 4 -3 8 0 8 7 0 8 5 7 17 -2 15
-13 15 -12 5 8 -11 20 -10 21 9 18 15 -3 19 0 15 10 -3 8 -1 17 5 20 5 4 6 11
3 17 -5 8 -1 9 11 4 18 -6 18 -6 -1 15 -10 12 -14 19 -8 16 7 -4 15 0 18 9 5
12 1 14 -17 8 -21 -6 -21 -6 3 16 l25 23 -24 -6 c-22 -6 -23 -5 -5 12 11 10
22 17 27 14 4 -2 7 0 7 5 0 6 11 13 25 16 14 4 23 10 20 15 -2 5 2 12 11 15 8
3 12 10 9 16 -3 5 2 10 12 10 10 0 26 9 36 20 27 32 54 10 59 -47 1 -7 5 -13
10 -13 9 0 6 -29 -5 -47 -5 -8 -3 -13 5 -14 7 0 4 -4 -7 -9 l-20 -9 20 0 c17
-1 17 -3 5 -11 -12 -8 -12 -10 -1 -10 11 0 11 -3 0 -17 -12 -14 -12 -15 0 -9
10 7 12 4 7 -12 -4 -13 -1 -22 9 -26 8 -3 15 -15 15 -26 0 -15 8 -22 30 -26
17 -4 30 -10 30 -15 0 -5 7 -9 16 -9 8 0 13 3 11 8 -3 4 10 7 28 7 18 0 31 -3
29 -7 -3 -5 -9 -6 -13 -3 -5 2 -17 -3 -27 -11 -10 -9 -13 -13 -6 -9 7 3 24 8
38 11 19 3 24 1 18 -8 -6 -10 -5 -11 7 -1 13 10 19 10 35 -3 18 -14 17 -14 -6
-3 -19 8 -22 8 -14 0 17 -18 66 -24 75 -9 7 10 9 10 9 -1 0 -11 3 -11 15 -1 8
7 15 8 15 3 0 -6 10 -9 23 -9 12 1 27 -2 34 -6 6 -5 14 -5 18 2 3 6 10 8 15 5
5 -3 14 4 20 15 10 18 14 19 28 8 13 -11 14 -11 7 1 -6 11 -3 13 13 9 21 -6
48 13 35 25 -3 4 8 10 26 13 17 4 34 11 38 17 3 5 2 7 -3 4 -6 -3 -16 -2 -24
4 -11 6 -5 8 18 5 25 -3 30 -1 22 9 -8 10 -8 15 1 21 8 4 9 3 5 -4 -4 -7 -3
-12 2 -12 14 0 34 28 28 39 -3 5 1 12 10 15 10 4 13 13 9 27 -4 12 -3 19 2 16
4 -3 17 2 28 10 19 15 19 15 -4 8 -23 -7 -23 -6 -8 15 12 17 13 28 6 42 -9 17
-5 22 14 19 5 -1 6 3 2 9 -3 6 -11 8 -16 5 -5 -4 -4 5 2 19 7 14 15 24 18 23
3 -1 6 3 6 8 0 6 -3 9 -7 8 -17 -6 -7 13 13 25 20 13 20 14 4 32 -16 17 -16
20 -2 26 10 3 14 13 11 27 -3 12 -6 27 -8 34 -1 7 -6 16 -11 20 -4 4 -5 2 0
-6 6 -10 4 -12 -4 -7 -7 5 -10 15 -7 23 3 8 1 11 -4 8 -6 -3 -10 0 -10 8 0 8
-8 18 -17 22 -15 5 -16 4 -5 -6 6 -7 12 -18 12 -23 0 -6 -8 1 -17 14 -10 14
-17 29 -15 34 2 5 -5 3 -14 -5 -12 -9 -15 -9 -10 -2 5 9 0 13 -17 13 -14 0
-28 7 -31 16 -3 8 -10 13 -15 9 -5 -3 -12 -1 -16 5 -3 5 -18 10 -33 10 -21 0
-24 2 -12 10 12 8 9 10 -13 10 -16 0 -26 4 -22 9 3 6 -4 8 -15 6 -13 -3 -20 1
-20 12 0 13 -3 13 -15 3 -14 -12 -19 -7 -16 15 1 6 -6 1 -15 -10 -15 -18 -16
-18 -10 -2 3 10 6 23 6 28 0 6 4 8 9 4 5 -3 13 0 17 6 4 8 3 9 -4 5 -7 -4 -12
-1 -12 9 0 11 7 14 25 11 14 -3 23 -1 20 5 -4 5 -1 9 4 9 6 0 11 7 11 16 0 9
5 12 12 8 8 -5 9 -2 5 9 -4 12 -1 17 11 17 15 0 15 2 2 10 -14 9 -7 15 14 11
5 -1 3 6 -5 15 -12 16 -12 17 3 11 13 -4 15 -2 11 10 -4 10 -2 14 4 10 15 -9
44 3 37 14 -3 5 2 9 11 9 9 0 13 5 10 10 -3 6 1 10 9 10 9 0 16 9 16 20 0 11
6 20 13 20 8 0 7 4 -3 10 -14 9 -7 14 15 11 6 -1 1 6 -9 14 -18 14 -18 15 -2
15 9 0 15 4 12 8 -3 5 1 9 9 9 11 0 12 -4 4 -13 -7 -8 -6 -14 2 -20 8 -4 9 -3
5 4 -4 7 -1 12 7 12 8 0 13 -9 12 -23 -1 -12 1 -34 5 -48 4 -14 3 -34 -2 -44
-8 -13 -7 -16 1 -11 6 4 11 2 11 -5 0 -8 5 -7 17 2 15 13 15 12 4 -9 -9 -18
-9 -22 1 -20 7 2 12 -2 11 -9 -2 -7 3 -10 11 -7 7 3 20 -2 29 -10 19 -19 31
-21 21 -3 -5 8 -2 8 9 -2 13 -10 20 -11 30 -2 10 8 17 7 27 -2 10 -10 12 -9 7
6 -6 15 -3 17 14 12 15 -5 19 -4 15 4 -4 6 -2 12 3 12 6 1 17 2 24 3 6 1 11 9
9 19 -2 12 2 15 15 10 16 -6 17 -5 3 12 -9 11 -10 16 -2 11 7 -4 12 -2 12 4 0
6 5 8 13 4 7 -5 6 0 -3 11 -10 13 -11 16 -2 11 9 -5 23 3 42 24 19 21 30 27
33 18 4 -9 6 -7 6 4 1 11 6 15 15 12 10 -4 14 1 12 19 -2 20 1 25 15 22 10 -2
22 1 25 7 4 7 2 8 -4 4 -7 -4 -12 -2 -12 3 0 6 5 11 10 11 6 0 10 9 10 19 0
11 6 22 13 24 10 4 10 6 0 6 -7 1 -13 8 -13 17 0 8 5 12 10 9 6 -3 10 -2 10 4
0 5 -6 11 -12 14 -10 3 -10 7 -1 18 12 15 13 18 13 50 0 11 5 17 10 14 6 -3
10 1 10 9 0 9 6 16 13 16 8 0 7 4 -3 10 -12 8 -12 10 -1 10 11 0 11 3 0 17 -8
9 -9 15 -4 12 6 -3 21 6 35 19 17 17 19 23 8 19 -12 -4 -15 -2 -11 9 3 8 8 13
10 10 3 -3 12 1 19 9 16 15 19 29 5 21 -11 -7 -8 21 4 31 4 4 5 3 2 -3 -4 -7
-1 -14 7 -17 19 -8 28 3 16 19 -8 8 -6 17 5 28 9 9 12 16 6 16 -6 0 -11 5 -11
11 0 5 3 8 8 6 4 -3 8 13 9 35 1 23 7 46 12 51 15 15 14 47 -1 47 -10 0 -9 3
1 9 11 7 9 16 -8 47 -11 22 -23 50 -26 64 -2 14 -27 49 -54 78 -36 40 -56 53
-77 54 -54 1 -65 -2 -58 -14 4 -7 3 -8 -4 -4 -6 4 -26 -1 -44 -10 -19 -10 -54
-17 -80 -16 -30 0 -48 -4 -48 -11 0 -8 -3 -8 -8 -2 -13 18 -35 17 -28 -1 5
-13 4 -14 -7 -6 -10 9 -19 7 -37 -5 -13 -9 -20 -11 -16 -4 5 8 3 12 -5 10 -25
-3 -52 1 -46 7 3 3 2 17 -3 30 -6 14 -6 26 1 29 5 4 7 10 4 15 -3 5 0 12 6 16
8 5 10 2 5 -7 -4 -8 2 -3 14 11 12 14 19 18 15 10 -4 -8 3 -4 15 10 12 14 18
18 14 10 -4 -8 6 0 23 17 16 18 33 30 38 25 4 -4 5 -1 0 7 -4 8 -2 17 6 22 12
8 12 11 -1 20 -13 9 -12 10 2 5 10 -3 22 2 27 12 6 9 11 13 11 7 0 -5 8 1 16
15 8 14 13 17 10 7 -4 -11 -2 -16 5 -11 6 3 9 15 6 25 -4 16 13 43 24 36 2 -1
-2 4 -10 11 -13 10 -13 12 1 12 9 0 20 5 24 12 4 7 3 8 -4 4 -7 -4 -13 -2 -13
3 -3 21 -4 26 -12 38 -4 6 -3 14 3 18 6 4 8 11 4 16 -3 6 2 17 12 25 11 9 13
12 5 8 -10 -5 -12 -3 -7 5 6 9 11 9 22 0 17 -14 19 2 2 21 -7 8 -2 6 11 -5 14
-11 21 -14 17 -7 -4 6 -2 12 4 12 6 0 8 5 4 12 -4 7 -3 8 5 4 6 -4 8 -13 4
-19 -4 -7 0 -6 10 2 9 7 24 11 32 7 11 -4 14 -2 9 6 -5 8 -2 9 9 5 22 -8 49 2
40 16 -3 6 -1 7 5 3 15 -9 69 20 82 44 6 11 15 18 19 16 5 -3 7 6 5 19 -1 14
2 28 7 31 6 3 5 11 -2 20 -6 7 -15 12 -19 9 -9 -5 -7 36 3 52 4 6 3 14 -3 18
-13 8 -13 25 0 25 5 0 9 -3 7 -7 -1 -5 1 -9 6 -10 16 -6 19 -2 8 11 -6 7 -12
25 -13 40 -1 14 -6 26 -10 26 -4 0 -8 5 -8 11 0 5 4 8 9 5 5 -4 8 2 6 11 -1
10 2 24 8 31 8 10 7 12 -3 10 -10 -2 -14 6 -14 24 1 21 -5 29 -27 37 -16 5
-29 13 -29 16 0 3 5 3 10 0 6 -3 10 -1 10 4 0 6 -5 11 -11 11 -5 0 -7 6 -3 13
5 8 2 7 -9 -2 -15 -12 -17 -12 -11 4 5 11 4 16 -3 12 -6 -4 -10 12 -12 40 0
25 -4 50 -8 57 -4 6 -9 31 -10 56 -5 58 -10 73 -24 64 -8 -4 -9 -3 -5 4 4 7 2
12 -5 12 -8 0 -8 4 -1 13 8 10 5 16 -11 27 -12 8 -29 15 -37 16 -8 2 -16 8
-18 13 -2 6 -10 11 -18 11 -13 0 -19 13 -15 33 1 5 -3 6 -9 2 -6 -3 -7 -11 -4
-17 4 -7 2 -8 -4 -4 -7 4 -12 14 -12 22 0 8 -5 14 -10 14 -6 0 -9 5 -8 11 2 6
-4 14 -12 16 -13 4 -13 3 0 -6 8 -6 10 -11 4 -11 -10 0 -34 24 -64 64 -13 17
-13 18 -1 11 11 -6 13 -4 8 8 -4 12 -1 17 11 18 10 0 12 3 5 6 -7 2 -13 15
-13 28 0 30 -10 56 -19 50 -4 -2 -8 2 -8 10 0 8 4 12 8 10 4 -3 10 2 13 11 3
8 2 12 -3 9 -5 -3 -12 -1 -16 5 -3 5 -1 10 5 10 6 0 8 5 5 10 -4 6 -11 7 -17
4 -7 -5 -9 -1 -5 9 3 10 2 17 -3 17 -6 0 -10 -5 -10 -12 0 -6 -3 -8 -6 -5 -4
4 -1 14 6 22 7 9 9 15 4 14 -28 -5 -43 2 -37 18 4 9 2 14 -3 11 -5 -4 -17 11
-28 32 -10 21 -29 43 -42 51 -20 10 -22 15 -11 28 10 12 9 13 -2 6 -11 -6 -13
-3 -9 13 4 14 2 20 -5 15 -6 -4 -8 2 -4 16 5 19 3 21 -11 9 -9 -7 -14 -8 -10
-4 4 5 2 16 -5 24 -9 13 -9 14 1 8 6 -4 12 -2 12 3 0 6 -7 11 -16 11 -8 0 -12
5 -9 10 3 6 0 10 -7 10 -9 0 -9 3 2 10 12 8 12 10 -5 11 l-20 0 20 9 c11 5 14
9 8 9 -7 1 -13 8 -13 17 0 9 -5 12 -12 8 -9 -5 -9 -2 1 9 9 11 10 17 2 17 -6
0 -11 9 -11 21 0 14 -5 19 -15 16 -8 -4 -17 -1 -21 5 -5 7 -2 8 6 3 8 -5 11
-4 7 3 -4 5 -17 8 -28 5 -19 -5 -20 -3 -14 18 7 21 6 22 -7 11 -13 -10 -18 -9
-29 5 -9 11 -10 14 -1 9 6 -4 12 -2 12 3 0 6 -4 11 -10 11 -5 0 -10 9 -10 19
0 11 -4 23 -10 26 -6 4 -7 -1 -4 -12 5 -16 4 -16 -10 1 -8 10 -13 23 -9 28 3
6 -5 4 -18 -3 -21 -11 -22 -10 -12 3 10 12 10 14 -5 13 -9 0 -24 -5 -31 -10
-11 -6 -13 -4 -8 8 3 9 1 19 -5 23 -7 4 -8 3 -4 -4 4 -7 3 -12 -1 -12 -5 0
-14 9 -21 21 -8 12 -9 18 -3 15 5 -4 13 -1 17 5 4 7 3 9 -3 6 -15 -10 -43 29
-30 42 8 8 6 11 -6 11 -10 0 -14 5 -11 15 5 11 2 13 -12 8 -12 -4 -15 -3 -10
6 4 6 2 19 -6 28 -7 9 -8 14 -3 11 6 -4 10 6 10 21 0 15 -5 28 -12 28 -7 0 -9
-5 -6 -10 3 -6 1 -7 -5 -3 -8 5 -8 15 -2 32 7 17 7 23 0 19 -6 -3 -10 1 -10 9
0 9 -4 16 -10 16 -5 0 -10 9 -10 19 0 11 -5 23 -12 27 -7 5 -8 3 -3 -6 5 -9 4
-11 -4 -6 -6 4 -10 15 -9 23 3 14 -13 22 -50 25 -6 1 -11 8 -10 17 2 13 -8 16
-52 18 -30 1 -71 4 -90 7 -19 2 -39 5 -43 5 -5 1 -5 5 -2 11 3 6 -1 7 -9 4 -9
-3 -13 -11 -9 -17 3 -5 1 -7 -5 -3 -6 3 -13 2 -17 -3 -3 -6 -12 -8 -20 -5 -8
4 -12 10 -9 16 3 5 -3 4 -14 -3 -12 -7 -18 -18 -14 -24 3 -5 -1 -4 -10 3 -11
9 -18 10 -23 2 -3 -6 -12 -7 -18 -3 -7 4 -5 -2 3 -12 8 -10 10 -16 4 -12 -7 4
-15 0 -18 -9 -3 -8 -11 -12 -17 -8 -8 4 -9 3 -5 -4 4 -7 2 -12 -5 -12 -6 0 -9
-8 -6 -20 4 -14 0 -20 -11 -21 -15 0 -15 -1 -2 -7 17 -8 20 -26 6 -39 -5 -5
-6 -3 -2 5 4 6 3 12 -2 12 -6 0 -13 -7 -16 -16 -4 -11 -12 -13 -28 -8 -13 4
-31 7 -41 6 -10 0 -15 4 -11 11 3 7 -2 3 -10 -7 -12 -15 -16 -16 -16 -5 0 12
-2 12 -10 -1 -8 -12 -10 -12 -11 5 -1 17 -2 16 -9 -5 -4 -14 -8 -19 -9 -12 -1
6 -6 12 -12 12 -6 0 -8 -7 -5 -17 4 -10 4 -14 0 -11 -4 4 -16 3 -27 -3 -15 -9
-18 -8 -11 3 4 7 -3 4 -15 -6 -16 -15 -20 -16 -16 -5 3 9 -2 22 -12 30 -17 13
-17 13 -3 -5 14 -18 14 -19 -6 -8 -12 6 -24 8 -28 5 -3 -3 -6 3 -6 15 0 12 -5
22 -11 22 -5 0 -8 -4 -5 -9 4 -5 -3 -7 -14 -4 -11 3 -17 9 -14 14 3 5 0 9 -5
9 -6 0 -11 -5 -11 -10 0 -7 -6 -8 -16 -2 -24 13 -60 3 -73 -21 -10 -20 -11
-20 -6 -2 5 20 5 20 -10 1 -11 -14 -15 -16 -15 -5 0 12 -2 12 -10 -1 -6 -10
-10 -11 -10 -2 0 6 -7 12 -15 12 -13 0 -14 4 -4 23 9 18 9 20 -2 10 -17 -17
-26 -16 -26 2 0 8 4 12 8 9 4 -2 10 0 14 6 3 5 -1 10 -10 10 -9 0 -13 5 -10
10 3 6 1 10 -6 10 -8 0 -8 4 1 15 11 13 10 14 -3 9 -11 -4 -26 4 -43 23 -20
22 -25 24 -20 8 5 -18 4 -17 -14 4 -11 13 -20 18 -20 12 0 -8 -4 -8 -14 1 -8
7 -12 17 -9 21 3 5 -4 4 -15 -2 -18 -9 -22 -8 -28 12 -13 39 -13 46 4 40 11
-5 14 -2 9 10 -5 15 -3 16 13 7 16 -9 18 -7 15 10 -3 18 -1 19 17 9 15 -8 19
-8 14 0 -4 6 0 11 9 11 9 0 13 5 10 10 -6 9 8 14 20 8 6 -4 40 44 41 57 0 6
-4 15 -9 22 -6 9 -3 11 14 8 17 -3 20 -2 11 7 -8 8 -9 15 -1 25 8 9 8 13 0 13
-13 0 -10 22 4 32 6 4 -1 8 -15 8 -20 0 -22 2 -10 10 13 9 13 10 0 10 -13 0
-13 1 0 11 12 9 11 10 -7 6 -15 -3 -20 -1 -16 9 3 9 -2 14 -13 14 -16 0 -17 2
-4 11 12 9 11 10 -7 6 -16 -4 -20 -1 -16 11 5 12 2 14 -12 9 -15 -6 -16 -5 -6
7 11 13 9 15 -8 11 -11 -2 -24 1 -27 7 -4 7 -2 8 4 4 7 -4 12 -2 12 3 0 6 -7
11 -16 11 -10 0 -14 6 -11 14 4 10 1 13 -8 10 -9 -4 -22 7 -35 28 -16 26 -20
29 -20 13 0 -16 -2 -17 -10 -5 -5 8 -12 11 -16 7 -4 -4 -13 -2 -21 4 -9 9 -17
8 -27 0 -11 -9 -16 -9 -22 0 -5 8 -3 10 7 4 8 -5 11 -4 6 1 -5 5 -14 9 -20 9
-7 1 -11 6 -10 13 2 6 -4 9 -13 5 -9 -3 -20 0 -25 8 -7 12 -9 12 -9 -1 0 -13
-1 -13 -10 0 -8 12 -10 12 -10 1 0 -11 -3 -11 -16 -1 -12 11 -15 11 -12 0 2
-7 -3 -15 -11 -18 -9 -3 -11 0 -6 7 5 9 2 9 -13 0 -12 -7 -19 -16 -17 -19 2
-3 -5 -6 -15 -6 -10 0 -16 4 -14 8 10 15 -9 8 -23 -9 -8 -10 -12 -12 -8 -5 8
15 -7 16 -23 0 -9 -9 -12 -9 -12 3 0 9 -3 10 -8 2 -4 -6 -16 -13 -27 -15 -11
-1 -26 -10 -33 -18 -10 -13 -11 -12 -6 5 5 19 5 19 -9 2 -13 -15 -17 -16 -29
-4 -7 8 -21 13 -30 11 -12 -1 -15 3 -10 14 5 15 4 15 -12 3 -13 -11 -19 -12
-29 -2 -9 10 -8 11 7 5 14 -5 17 -3 14 7 -3 8 -11 13 -18 11 -7 -1 -19 5 -27
15 -8 10 -12 12 -8 6 4 -8 0 -13 -9 -13 -9 0 -16 5 -16 11 0 8 -6 7 -17 -2
-15 -12 -16 -12 -8 1 8 13 7 13 -10 0 -11 -9 -16 -10 -11 -2 11 18 -5 15 -19
-5 -9 -13 -14 -13 -20 -3 -6 9 -4 11 5 5 9 -5 11 -4 6 3 -8 14 -15 15 -17 5z
m-854 -313 c-3 -5 -14 -10 -23 -9 -14 0 -13 2 3 9 27 11 27 11 20 0z m250 -39
c3 -5 2 -12 -3 -15 -5 -3 -9 1 -9 9 0 17 3 19 12 6z m878 -28 c-10 -8 -13 -12
-6 -9 6 4 14 2 18 -4 3 -5 0 -10 -7 -10 -9 0 -9 -3 2 -10 13 -9 13 -11 0 -20
-13 -9 -13 -11 0 -21 12 -9 11 -10 -5 -5 -19 6 -19 5 -2 -8 25 -20 21 -34 -11
-33 -16 1 -29 7 -29 14 0 9 4 10 14 2 16 -14 17 -5 2 22 -5 11 -15 17 -20 13
-8 -4 -8 0 -1 12 5 11 7 25 4 33 -3 9 0 11 8 6 9 -6 11 -4 5 5 -6 10 -11 9
-22 -5 -16 -23 -17 -12 -1 14 7 12 18 16 31 13 14 -3 18 -1 13 6 -5 8 -2 10 9
6 14 -6 14 -8 -2 -21z m602 -3 c-3 -5 -11 -10 -16 -10 -6 0 -7 5 -4 10 3 6 11
10 16 10 6 0 7 -4 4 -10z m-1365 -40 c19 -16 31 -30 26 -30 -5 0 -2 -7 5 -17
13 -15 12 -15 -11 -4 l-25 12 24 -20 c21 -19 17 -27 -11 -22 -13 2 -9 -6 9
-20 11 -10 14 -10 9 -1 -4 6 -3 12 2 12 6 0 13 -7 16 -16 3 -8 2 -12 -4 -9 -6
3 -13 -1 -16 -10 -4 -10 -14 -15 -25 -12 -19 5 -44 -15 -32 -26 3 -4 4 -7 1
-7 -2 0 -15 11 -28 25 -24 26 -22 36 2 11 12 -12 14 -6 14 39 -1 29 -4 51 -7
49 -3 -1 -6 3 -6 11 0 8 4 12 9 9 4 -3 8 2 8 11 0 10 -5 13 -12 9 -7 -5 -8 -3
-3 6 6 10 3 12 -11 7 -18 -7 -18 -7 0 8 26 20 25 20 66 -15z m765 -100 c3 -6
-1 -7 -9 -4 -18 7 -21 14 -7 14 6 0 13 -4 16 -10z m1559 -49 c-8 -8 -43 -8
-38 0 2 4 13 7 24 6 10 -1 17 -3 14 -6z m-2390 -9 c3 -5 -1 -9 -9 -9 -8 0 -12
4 -9 9 3 4 7 8 9 8 2 0 6 -4 9 -8z m2456 -28 c0 -8 -19 -13 -24 -6 -3 5 1 9 9
9 8 0 15 -2 15 -3z m-525 -114 c-3 -5 -12 -10 -18 -10 -7 0 -6 4 3 10 19 12
23 12 15 0z m-2755 -281 c0 -5 -4 -9 -8 -9 -5 0 -9 7 -9 15 0 8 4 12 9 9 4 -3
8 -9 8 -15z m3187 -65 c-3 -3 -12 -4 -19 -1 -8 3 -5 6 6 6 11 1 17 -2 13 -5z
m-10 -41 c-4 -3 -1 -13 5 -22 10 -13 10 -14 -1 -4 -7 6 -21 9 -30 6 -11 -4
-10 -1 4 10 20 16 34 23 22 10z m-11 -55 c0 -18 -1 -18 -13 -2 -7 10 -13 15
-13 12 0 -4 -3 -14 -7 -24 -5 -13 -3 -15 8 -9 8 5 7 1 -4 -12 -9 -11 -14 -24
-10 -28 5 -5 -1 -3 -11 5 -18 14 -18 13 -12 -10 6 -20 5 -22 -4 -10 -10 12
-11 11 -7 -8 5 -19 3 -21 -9 -11 -17 14 -19 -2 -1 -21 10 -12 9 -12 -5 -1 -10
7 -18 10 -18 6 0 -4 -7 -2 -15 5 -12 10 -13 16 -4 26 6 8 15 12 19 9 4 -3 14
3 21 13 13 15 12 16 -3 4 -11 -9 -18 -10 -23 -2 -3 5 1 10 9 10 8 0 20 9 26
20 6 11 15 18 20 15 5 -3 13 3 19 13 13 24 37 24 37 0z m-3940 -393 c8 -10 14
-14 14 -7 0 7 8 5 20 -5 19 -16 19 -18 3 -25 -16 -6 -16 -7 2 -8 11 -1 15 -4
9 -6 -8 -4 -9 -16 -2 -42 5 -20 10 -43 12 -50 1 -8 9 -18 17 -23 12 -7 12 -9
0 -9 -11 0 -10 -4 5 -16 10 -8 13 -12 5 -8 -11 5 -13 3 -8 -12 7 -18 6 -18 -7
-1 -14 18 -32 24 -21 7 13 -21 -18 -9 -36 15 -11 13 -26 22 -33 19 -9 -4 -14
5 -14 28 -3 79 -14 114 -34 102 -7 -4 -8 -2 -4 4 4 6 2 20 -3 30 -13 25 -8 29
30 28 18 -1 37 -10 45 -21z m4181 10 c4 -4 3 -5 -3 -2 -7 4 -14 0 -18 -8 -6
-17 -26 -20 -26 -4 0 5 5 7 12 3 7 -5 9 -2 5 8 -6 17 16 19 30 3z m-4227 -75
c0 -5 -2 -10 -4 -10 -3 0 -8 5 -11 10 -3 6 -1 10 4 10 6 0 11 -4 11 -10z m10
-60 c0 -5 -4 -10 -10 -10 -5 0 -10 5 -10 10 0 6 5 10 10 10 6 0 10 -4 10 -10z
m50 -82 c0 -5 -7 -3 -15 6 -8 8 -15 18 -15 22 0 3 7 1 15 -6 8 -7 15 -17 15
-22z m4881 -135 c13 -16 12 -17 -3 -4 -10 7 -18 15 -18 17 0 8 8 3 21 -13z
m-392 -2 c7 -2 -21 -31 -30 -31 -5 0 -9 7 -9 15 0 8 -4 15 -10 15 -5 0 -8 -6
-6 -12 1 -7 1 -10 -1 -5 -3 4 -11 7 -18 7 -8 0 -16 3 -18 8 -4 5 73 8 92 3z
m-94 -21 c3 -6 -1 -7 -9 -4 -18 7 -21 14 -7 14 6 0 13 -4 16 -10z m-4650 -259
c-9 -8 -36 -10 -30 -2 2 4 11 8 20 8 8 0 13 -3 10 -6z m61 -16 c-3 -9 0 -15
10 -15 8 0 12 4 9 10 -4 6 1 7 11 3 15 -5 15 -7 0 -15 -9 -5 -14 -13 -11 -19
4 -5 0 -9 -7 -10 -7 0 -4 -4 7 -9 11 -5 14 -9 7 -9 -21 -1 -53 19 -47 30 4 5
2 9 -4 9 -5 0 -12 -8 -15 -17 -4 -14 -4 -14 -3 2 1 11 -2 26 -6 33 -5 7 -4 12
2 12 6 0 11 -4 11 -10 0 -5 5 -10 11 -10 5 0 7 5 3 12 -4 7 -3 8 4 4 7 -4 12
-2 12 3 0 6 3 11 6 11 3 0 4 -7 0 -15z m5231 -108 c0 -8 -6 -14 -14 -14 -9 0
-10 4 -2 14 6 7 12 13 14 13 1 0 2 -6 2 -13z m23 -223 c0 -8 -19 -13 -24 -6
-3 5 1 9 9 9 8 0 15 -2 15 -3z m-5863 -79 c0 -8 -4 -12 -9 -9 -5 3 -6 10 -3
15 9 13 12 11 12 -6z m97 -343 c3 -5 -1 -9 -9 -9 -8 0 -12 4 -9 9 3 4 7 8 9 8
2 0 6 -4 9 -8z m391 -52 c3 -5 1 -10 -4 -10 -6 0 -11 5 -11 10 0 6 2 10 4 10
3 0 8 -4 11 -10z m-215 -1196 c0 -8 -19 -13 -24 -6 -3 5 1 9 9 9 8 0 15 -2 15
-3z m120 -278 c0 -2 -7 -7 -16 -10 -8 -3 -12 -2 -9 4 6 10 25 14 25 6z m38
-18 c-2 -7 3 -12 10 -10 8 1 11 -2 7 -8 -5 -8 -11 -8 -21 1 -7 6 -11 15 -8 20
8 13 14 11 12 -3z m242 -73 c11 -13 10 -14 -4 -9 -9 3 -16 10 -16 15 0 13 6
11 20 -6z m77 -190 c0 -8 -4 -12 -9 -9 -5 3 -6 10 -3 15 9 13 12 11 12 -6z
m615 -60 c2 3 5 -2 5 -10 0 -8 -5 -11 -10 -8 -7 4 -8 -1 -3 -13 4 -10 8 -21 9
-24 1 -3 -2 -5 -8 -5 -5 0 -9 6 -7 13 2 6 -2 12 -7 12 -10 0 -5 -45 6 -63 3
-6 1 -7 -5 -3 -5 3 -13 0 -16 -6 -3 -7 -3 -2 0 12 5 24 4 24 -10 7 -8 -11 -12
-25 -9 -33 3 -8 0 -14 -6 -14 -6 0 -10 6 -8 13 1 6 -5 11 -13 9 -8 -2 -12 0
-7 4 4 4 1 17 -7 29 -12 18 -11 24 4 43 15 18 19 19 24 7 3 -8 11 -15 18 -15
8 0 9 3 3 8 -12 9 -18 32 -7 31 21 -4 32 2 26 14 -6 9 -5 9 8 0 8 -7 17 -11
20 -8z m3308 -65 c0 -5 -2 -10 -4 -10 -3 0 -8 5 -11 10 -3 6 -1 10 4 10 6 0
11 -4 11 -10z m-3850 -68 c0 -1 -9 2 -20 8 -11 6 -20 15 -20 20 0 6 9 2 20 -7
11 -10 20 -19 20 -21z m3885 10 c-3 -3 -11 0 -18 7 -9 10 -8 11 6 5 10 -3 15
-9 12 -12z m-3835 -44 c0 -5 -9 -3 -20 4 -11 7 -20 16 -20 20 0 5 9 3 20 -4
11 -7 20 -16 20 -20z m4130 -12 c-7 -7 -13 -7 -20 0 -6 6 -3 10 10 10 13 0 16
-4 10 -10z m-400 -210 c0 -3 -4 -8 -10 -11 -5 -3 -10 -1 -10 4 0 6 5 11 10 11
6 0 10 -2 10 -4z m-1259 -89 c-10 -9 -11 -8 -5 6 3 10 9 15 12 12 3 -3 0 -11
-7 -18z m1097 -137 c-7 -11 -14 -17 -17 -15 -2 3 1 11 7 18 7 8 8 18 4 22 -4
5 -1 5 5 1 10 -5 10 -11 1 -26z m-1643 -30 c-3 -5 -12 -10 -18 -10 -7 0 -6 4
3 10 19 12 23 12 15 0z m70 -29 c1 -16 -3 -27 -7 -25 -4 3 -8 0 -8 -5 0 -6 5
-11 11 -11 5 0 7 -5 4 -10 -4 -6 -10 -8 -15 -5 -4 3 -7 -11 -5 -29 1 -24 -2
-33 -11 -29 -6 2 -15 -1 -20 -8 -5 -8 -3 -10 7 -4 11 6 11 5 2 -5 -10 -10 -18
-10 -42 -1 -32 14 -46 36 -29 47 6 4 8 3 4 -4 -3 -6 -1 -14 6 -18 7 -4 10 -4
6 1 -4 4 -3 14 4 22 7 9 8 13 1 11 -6 -2 -12 2 -13 7 -1 6 -6 15 -11 22 -7 7
-6 14 2 19 7 4 9 3 6 -3 -4 -6 -1 -13 6 -16 10 -4 13 2 9 19 -2 13 -9 21 -15
17 -6 -3 -7 -1 -3 6 5 7 23 10 46 8 22 -2 37 0 35 4 -3 4 3 10 12 12 10 3 18
5 18 6 0 0 0 -12 0 -28z m-75 -147 c14 -8 17 -13 8 -10 -20 6 -34 -10 -16 -18
7 -2 2 -3 -12 -2 -14 2 -25 8 -24 14 3 38 6 39 44 16z m1154 -70 c3 -8 2 -12
-4 -9 -6 3 -10 10 -10 16 0 14 7 11 14 -7z m-1979 -14 c9 8 15 8 20 0 4 -6 3
-10 -2 -9 -4 1 -10 0 -13 -1 -25 -9 -38 -6 -32 8 4 11 7 12 10 4 3 -10 7 -10
17 -2z"/>
<path d="M3286 5535 c-3 -8 0 -17 6 -21 6 -4 8 -3 4 4 -3 5 -1 12 6 14 8 3 9
6 1 11 -6 4 -13 0 -17 -8z"/>
<path d="M2516 5547 c3 -10 9 -15 12 -12 3 3 0 11 -7 18 -10 9 -11 8 -5 -6z"/>
<path d="M4767 4765 c3 -8 9 -12 14 -9 12 7 11 11 -5 17 -10 4 -13 1 -9 -8z"/>
<path d="M4705 4711 c-3 -5 -2 -12 3 -15 5 -3 9 1 9 9 0 17 -3 19 -12 6z"/>
<path d="M821 4398 c5 -9 15 -20 22 -24 7 -5 6 -1 -2 10 -13 15 -13 19 0 26
10 7 8 9 -8 7 -17 -1 -20 -5 -12 -19z"/>
<path d="M693 3735 c0 -8 4 -12 9 -9 5 3 6 10 3 15 -9 13 -12 11 -12 -6z"/>
<path d="M1371 1096 c-9 -11 -9 -16 0 -22 8 -4 9 -3 5 4 -4 7 -3 12 2 12 16 0
22 -13 11 -26 -7 -9 -6 -14 3 -20 7 -4 10 -4 6 1 -4 4 -4 13 1 19 6 7 4 18 -4
29 -10 15 -14 15 -24 3z"/>
<path d="M2857 323 c-4 -3 -7 -11 -7 -17 0 -6 5 -5 12 2 6 6 9 14 7 17 -3 3
-9 2 -12 -2z"/>
<path d="M2916 5922 c-3 -5 1 -9 9 -9 8 0 12 4 9 9 -3 4 -7 8 -9 8 -2 0 -6 -4
-9 -8z"/>
<path d="M3766 5888 c3 -5 10 -6 15 -3 13 9 11 12 -6 12 -8 0 -12 -4 -9 -9z"/>
<path d="M4710 5429 c0 -5 5 -7 10 -4 6 3 10 8 10 11 0 2 -4 4 -10 4 -5 0 -10
-5 -10 -11z"/>
<path d="M1605 5261 c-3 -5 -2 -12 3 -15 5 -3 9 1 9 9 0 17 -3 19 -12 6z"/>
<path d="M1535 5171 c-3 -5 0 -13 6 -17 8 -4 7 -9 -2 -15 -10 -6 -10 -9 -2 -9
16 0 26 17 13 25 -6 4 -8 11 -5 16 4 5 4 9 1 9 -3 0 -7 -4 -11 -9z"/>
<path d="M640 4719 c0 -5 5 -7 10 -4 6 3 10 8 10 11 0 2 -4 4 -10 4 -5 0 -10
-5 -10 -11z"/>
<path d="M5596 4241 c-3 -5 3 -20 14 -32 11 -13 19 -20 20 -16 0 5 -7 15 -15
24 -8 8 -13 19 -10 24 4 5 4 9 1 9 -3 0 -7 -4 -10 -9z"/>
<path d="M66 3805 c-3 -8 -1 -15 3 -15 5 0 11 7 15 15 3 8 1 15 -3 15 -5 0
-11 -7 -15 -15z"/>
<path d="M5947 3503 c-8 -17 -1 -37 13 -40 13 -4 13 -3 0 6 -13 10 -13 11 0
11 13 0 13 2 1 9 -11 7 -10 10 5 14 16 4 16 5 2 6 -9 0 -19 -2 -21 -6z"/>
<path d="M59 3438 c-5 -9 -5 -48 -1 -43 6 6 11 45 5 45 -2 0 -4 -1 -4 -2z"/>
<path d="M5665 3200 c-3 -5 -1 -10 4 -10 6 0 11 5 11 10 0 6 -2 10 -4 10 -3 0
-8 -4 -11 -10z"/>
<path d="M520 2968 c-12 -8 -12 -9 2 -5 9 3 19 1 22 -6 3 -9 5 -9 5 0 1 18
-13 23 -29 11z"/>
<path d="M225 2390 c-4 -6 -12 -7 -18 -4 -7 4 -8 3 -4 -1 13 -15 34 -14 34 1
0 17 -4 18 -12 4z"/>
<path d="M299 1858 c11 -15 11 -21 1 -34 -11 -12 -11 -15 1 -12 8 2 13 -3 11
-10 -1 -8 2 -11 9 -7 7 5 7 11 1 17 -6 6 -8 16 -6 23 3 6 -3 18 -13 26 -16 13
-17 12 -4 -3z"/>
<path d="M306 1678 c3 -5 10 -6 15 -3 13 9 11 12 -6 12 -8 0 -12 -4 -9 -9z"/>
<path d="M431 1484 c0 -11 3 -14 6 -6 3 7 2 16 -1 19 -3 4 -6 -2 -5 -13z"/>
<path d="M820 1380 c-8 -5 -10 -10 -5 -10 6 0 17 5 25 10 8 5 11 10 5 10 -5 0
-17 -5 -25 -10z"/>
<path d="M4725 1209 c-4 -6 -5 -12 -2 -15 2 -3 7 2 10 11 7 17 1 20 -8 4z"/>
<path d="M1043 945 c0 -8 4 -12 9 -9 5 3 6 10 3 15 -9 13 -12 11 -12 -6z"/>
<path d="M4630 906 c0 -2 8 -10 18 -17 15 -13 16 -12 3 4 -13 16 -21 21 -21
13z"/>
<path d="M1475 670 c-3 -5 -1 -10 4 -10 6 0 11 5 11 10 0 6 -2 10 -4 10 -3 0
-8 -4 -11 -10z"/>
<path d="M1553 637 c0 -8 6 -14 14 -14 9 0 10 4 2 14 -6 7 -12 13 -14 13 -1 0
-2 -6 -2 -13z"/>
<path d="M1827 209 c7 -7 15 -10 18 -7 3 3 -2 9 -12 12 -14 6 -15 5 -6 -5z"/>
<path d="M2390 66 c0 -2 7 -7 16 -10 8 -3 12 -2 9 4 -6 10 -25 14 -25 6z"/>
</g>
</svg>
